<mxfile host="app.diagrams.net" modified="2024-07-18T16:14:47.146Z" agent="Mozilla/5.0 (Macintosh; Intel Mac OS X 10_15_7) AppleWebKit/605.1.15 (KHTML, like Gecko) Version/16.6 Safari/605.1.15" etag="0fKua_dH8sFx03GesWhi" version="24.7.1" type="github">
  <diagram name="Page-1" id="eeZhJJYqSdkIcSQRqws1">
    <mxGraphModel dx="1361" dy="1380" grid="0" gridSize="10" guides="1" tooltips="1" connect="1" arrows="1" fold="1" page="0" pageScale="1" pageWidth="850" pageHeight="1100" math="0" shadow="0">
      <root>
        <mxCell id="0" />
        <mxCell id="1" parent="0" />
        <mxCell id="-8MILRvP9ag3TjMFV7qT-1" value="User" style="shape=umlActor;verticalLabelPosition=bottom;verticalAlign=top;html=1;outlineConnect=0;" vertex="1" parent="1">
          <mxGeometry x="-514" y="-416" width="30" height="60" as="geometry" />
        </mxCell>
        <mxCell id="-8MILRvP9ag3TjMFV7qT-2" value="" style="endArrow=none;html=1;rounded=0;fontSize=12;startSize=8;endSize=8;curved=1;entryX=0;entryY=1;entryDx=0;entryDy=0;" edge="1" parent="1" target="-8MILRvP9ag3TjMFV7qT-3">
          <mxGeometry width="50" height="50" relative="1" as="geometry">
            <mxPoint x="-473" y="-410" as="sourcePoint" />
            <mxPoint x="-423" y="-460" as="targetPoint" />
          </mxGeometry>
        </mxCell>
        <mxCell id="-8MILRvP9ag3TjMFV7qT-3" value="Create&amp;nbsp;&lt;div&gt;Account&lt;/div&gt;" style="ellipse;whiteSpace=wrap;html=1;" vertex="1" parent="1">
          <mxGeometry x="-423" y="-495" width="97" height="60" as="geometry" />
        </mxCell>
        <mxCell id="-8MILRvP9ag3TjMFV7qT-4" value="Login" style="ellipse;whiteSpace=wrap;html=1;" vertex="1" parent="1">
          <mxGeometry x="-413.5" y="-408" width="86" height="50" as="geometry" />
        </mxCell>
        <mxCell id="-8MILRvP9ag3TjMFV7qT-5" value="" style="endArrow=none;html=1;rounded=0;fontSize=12;startSize=8;endSize=8;curved=1;entryX=0;entryY=0.5;entryDx=0;entryDy=0;" edge="1" parent="1" target="-8MILRvP9ag3TjMFV7qT-4">
          <mxGeometry width="50" height="50" relative="1" as="geometry">
            <mxPoint x="-488.5" y="-386.5" as="sourcePoint" />
            <mxPoint x="-418" y="-386" as="targetPoint" />
          </mxGeometry>
        </mxCell>
        <mxCell id="-8MILRvP9ag3TjMFV7qT-7" value="Retrieve&lt;div&gt;&amp;nbsp;Stocks&lt;/div&gt;" style="ellipse;whiteSpace=wrap;html=1;" vertex="1" parent="1">
          <mxGeometry x="-411" y="-336" width="96" height="59" as="geometry" />
        </mxCell>
        <mxCell id="-8MILRvP9ag3TjMFV7qT-8" value="" style="endArrow=none;html=1;rounded=0;fontSize=12;startSize=8;endSize=8;curved=1;entryX=0;entryY=0;entryDx=0;entryDy=0;" edge="1" parent="1" target="-8MILRvP9ag3TjMFV7qT-7">
          <mxGeometry width="50" height="50" relative="1" as="geometry">
            <mxPoint x="-475.5" y="-361" as="sourcePoint" />
            <mxPoint x="-413.5" y="-336" as="targetPoint" />
          </mxGeometry>
        </mxCell>
        <mxCell id="-8MILRvP9ag3TjMFV7qT-11" value="accessing&amp;nbsp;&lt;div&gt;csv file&lt;/div&gt;" style="ellipse;whiteSpace=wrap;html=1;" vertex="1" parent="1">
          <mxGeometry x="-275" y="-390" width="95" height="57" as="geometry" />
        </mxCell>
        <mxCell id="-8MILRvP9ag3TjMFV7qT-12" value="" style="endArrow=none;html=1;rounded=0;fontSize=12;startSize=8;endSize=8;curved=1;entryX=0;entryY=0.5;entryDx=0;entryDy=0;exitX=1;exitY=0;exitDx=0;exitDy=0;" edge="1" parent="1" source="-8MILRvP9ag3TjMFV7qT-7" target="-8MILRvP9ag3TjMFV7qT-11">
          <mxGeometry width="50" height="50" relative="1" as="geometry">
            <mxPoint x="-315" y="-311" as="sourcePoint" />
            <mxPoint x="-275" y="-351" as="targetPoint" />
          </mxGeometry>
        </mxCell>
      </root>
    </mxGraphModel>
  </diagram>
</mxfile>
